<?xml version="1.0" standalone="no"?><svg xmlns:xlink="http://www.w3.org/1999/xlink" xmlns="http://www.w3.org/2000/svg" viewBox="0 0 1000 647.0573893016094" preserveAspectRatio="xMaxYMax slice"><g transform="scale(1.8755286646423461)"><rect x="0" y="0" width="564.5454545454545" height="345" fill="#ffffff"/><rect x="94.0909090909091" y="0" width="31.363636363636363" height="31.363636363636363" fill="#ffffff"/><path d="M 94.09 0 A 15.68 15.68 0 0 1  109.77000000000001 15.68 L 94.09 0 A 15.68 15.68 0 0 0 109.77000000000001 15.68" fill="#24e0e0"/><path d="M 109.77 15.68 A 15.68 15.68 0 0 1  125.44999999999999 31.36 L 109.77 15.68 A 15.68 15.68 0 0 0 125.44999999999999 31.36" fill="#8beaff"/><rect x="250.9090909090909" y="0" width="31.363636363636363" height="31.363636363636363" fill="#ffffff"/><path d="M 266.59 0 A 15.68 15.68 0 0 1  282.27 15.68 L 266.59 0 A 15.68 15.68 0 0 0 282.27 15.68" fill="#d2f7ff"/><path d="M 250.91 31.36 A 15.68 15.68 0 0 1  266.59 15.68 L 250.91 31.36 A 15.68 15.68 0 0 0 266.59 15.68" fill="#5d78ea"/><rect x="470.45454545454544" y="0" width="31.363636363636363" height="31.363636363636363" fill="#ffffff"/><path d="M 470.45 15.68 A 15.68 15.68 0 0 1  486.13 31.36 L 470.45 15.68 A 15.68 15.68 0 0 0 486.13 31.36" fill="#3355e4"/><path d="M 486.14 15.68 A 15.68 15.68 0 0 1  501.82 31.36 L 486.14 15.68 A 15.68 15.68 0 0 0 501.82 31.36" fill="#8eebff"/><path d="M 533.18 31.36 A 31.36 31.36 0 0 1  564.54 0 L 533.18 31.36 A 31.36 31.36 0 0 0 564.54 0" fill="#b6f2ff"/><rect x="31.363636363636363" y="31.363636363636363" width="31.363636363636363" height="31.363636363636363" fill="#ffffff"/><path d="M 31.36 47.05 A 15.68 15.68 0 0 1  47.04 62.73 L 31.36 47.05 A 15.68 15.68 0 0 0 47.04 62.73" fill="#758ced"/><rect x="94.0909090909091" y="31.363636363636363" width="31.363636363636363" height="31.363636363636363" fill="#ffffff"/><path d="M 94.09 47.04 A 15.68 15.68 0 0 1  109.77000000000001 31.36 L 94.09 47.04 A 15.68 15.68 0 0 0 109.77000000000001 31.36" fill="#34e2e2"/><path d="M 94.09 47.05 A 15.68 15.68 0 0 1  109.77000000000001 62.73 L 94.09 47.05 A 15.68 15.68 0 0 0 109.77000000000001 62.73" fill="#4666e7"/><path d="M 156.82 31.36 A 31.36 31.36 0 0 1  188.18 62.72 L 156.82 31.36 A 31.36 31.36 0 0 0 188.18 62.72" fill="#38dbff"/><rect x="250.9090909090909" y="31.363636363636363" width="31.363636363636363" height="31.363636363636363" fill="#ffffff"/><path d="M 266.59 47.04 A 15.68 15.68 0 0 1  282.27 31.36 L 266.59 47.04 A 15.68 15.68 0 0 0 282.27 31.36" fill="#93a5f1"/><path d="M 250.91 47.05 A 15.68 15.68 0 0 1  266.59 62.73 L 250.91 47.05 A 15.68 15.68 0 0 0 266.59 62.73" fill="#d6f8ff"/><path d="M 266.59 47.05 A 15.68 15.68 0 0 1  282.27 62.73 L 266.59 47.05 A 15.68 15.68 0 0 0 282.27 62.73" fill="#aef0ff"/><rect x="407.72727272727275" y="31.363636363636363" width="31.363636363636363" height="31.363636363636363" fill="#ffffff"/><path d="M 407.73 47.04 A 15.68 15.68 0 0 1  423.41 31.36 L 407.73 47.04 A 15.68 15.68 0 0 0 423.41 31.36" fill="#bdc8f6"/><path d="M 407.73 62.73 A 15.68 15.68 0 0 1  423.41 47.05 L 407.73 62.73 A 15.68 15.68 0 0 0 423.41 47.05" fill="#dff9ff"/><path d="M 423.41 62.73 A 15.68 15.68 0 0 1  439.09000000000003 47.05 L 423.41 62.73 A 15.68 15.68 0 0 0 439.09000000000003 47.05" fill="#8196ef"/><path d="M 125.45 62.73 A 31.36 31.36 0 0 1  156.81 94.09 L 125.45 62.73 A 31.36 31.36 0 0 0 156.81 94.09" fill="#daf8ff"/><path d="M 188.18 94.09 A 31.36 31.36 0 0 1  219.54000000000002 62.73 L 188.18 94.09 A 31.36 31.36 0 0 0 219.54000000000002 62.73" fill="#2fe1e1"/><path d="M 219.55 62.73 A 31.36 31.36 0 0 1  250.91000000000003 94.09 L 219.55 62.73 A 31.36 31.36 0 0 0 250.91000000000003 94.09" fill="#b0bef5"/><path d="M 250.91 62.73 A 31.36 31.36 0 0 1  282.27 94.09 L 250.91 62.73 A 31.36 31.36 0 0 0 282.27 94.09" fill="#c1ccf7"/><path d="M 282.27 62.73 A 31.36 31.36 0 0 1  313.63 94.09 L 282.27 62.73 A 31.36 31.36 0 0 0 313.63 94.09" fill="#cff8f8"/><rect x="313.6363636363636" y="62.72727272727273" width="31.363636363636363" height="31.363636363636363" fill="#ffffff"/><path d="M 345 62.73 A 31.36 31.36 0 0 1  376.36 94.09 L 345 62.73 A 31.36 31.36 0 0 0 376.36 94.09" fill="#93ebff"/><path d="M 62.73 125.45 A 31.36 31.36 0 0 1  94.09 94.09 L 62.73 125.45 A 31.36 31.36 0 0 0 94.09 94.09" fill="#73e6ff"/><rect x="219.54545454545453" y="94.0909090909091" width="31.363636363636363" height="31.363636363636363" fill="#ffffff"/><path d="M 313.64 125.45 A 31.36 31.36 0 0 1  345 94.09 L 313.64 125.45 A 31.36 31.36 0 0 0 345 94.09" fill="#fafbfe"/><path d="M 345 94.09 A 31.36 31.36 0 0 1  376.36 125.45 L 345 94.09 A 31.36 31.36 0 0 0 376.36 125.45" fill="#d0f7ff"/><path d="M 439.09 125.45 A 31.36 31.36 0 0 1  470.45 94.09 L 439.09 125.45 A 31.36 31.36 0 0 0 470.45 94.09" fill="#78ecec"/><path d="M 31.36 125.45 A 31.36 31.36 0 0 1  62.72 156.81 L 31.36 125.45 A 31.36 31.36 0 0 0 62.72 156.81" fill="#2c50e4"/><path d="M 62.73 156.81 A 31.36 31.36 0 0 1  94.09 125.45 L 62.73 156.81 A 31.36 31.36 0 0 0 94.09 125.45" fill="#a2f2f2"/><rect x="94.0909090909091" y="125.45454545454545" width="31.363636363636363" height="31.363636363636363" fill="#ffffff"/><path d="M 94.09 141.13 A 15.68 15.68 0 0 1  109.77000000000001 125.45 L 94.09 141.13 A 15.68 15.68 0 0 0 109.77000000000001 125.45" fill="#83e9ff"/><path d="M 376.36 125.45 A 31.36 31.36 0 0 1  407.72 156.81 L 376.36 125.45 A 31.36 31.36 0 0 0 407.72 156.81" fill="#4ee6e6"/><rect x="407.72727272727275" y="125.45454545454545" width="31.363636363636363" height="31.363636363636363" fill="#ffffff"/><path d="M 407.73 141.14 A 15.68 15.68 0 0 1  423.41 156.82 L 407.73 141.14 A 15.68 15.68 0 0 0 423.41 156.82" fill="#a0b0f3"/><path d="M 439.09 156.81 A 31.36 31.36 0 0 1  470.45 125.45 L 439.09 156.81 A 31.36 31.36 0 0 0 470.45 125.45" fill="#6beaea"/><path d="M 501.82 156.81 A 31.36 31.36 0 0 1  533.18 125.45 L 501.82 156.81 A 31.36 31.36 0 0 0 533.18 125.45" fill="#fafefe"/><rect x="533.1818181818181" y="125.45454545454545" width="31.363636363636363" height="31.363636363636363" fill="#ffffff"/><path d="M 62.73 156.82 A 31.36 31.36 0 0 1  94.09 188.18 L 62.73 156.82 A 31.36 31.36 0 0 0 94.09 188.18" fill="#4edfff"/><rect x="219.54545454545453" y="156.8181818181818" width="31.363636363636363" height="31.363636363636363" fill="#ffffff"/><path d="M 219.55 172.5 A 15.68 15.68 0 0 1  235.23000000000002 188.18 L 219.55 172.5 A 15.68 15.68 0 0 0 235.23000000000002 188.18" fill="#98ecff"/><rect x="407.72727272727275" y="156.8181818181818" width="31.363636363636363" height="31.363636363636363" fill="#ffffff"/><path d="M 423.41 188.18 A 15.68 15.68 0 0 1  439.09000000000003 172.5 L 423.41 188.18 A 15.68 15.68 0 0 0 439.09000000000003 172.5" fill="#81e8ff"/><rect x="125.45454545454545" y="188.1818181818182" width="31.363636363636363" height="31.363636363636363" fill="#ffffff"/><path d="M 141.14 203.86 A 15.68 15.68 0 0 1  156.82 188.18 L 141.14 203.86 A 15.68 15.68 0 0 0 156.82 188.18" fill="#44ddff"/><path d="M 125.45 203.86 A 15.68 15.68 0 0 1  141.13 219.54000000000002 L 125.45 203.86 A 15.68 15.68 0 0 0 141.13 219.54000000000002" fill="#f9feff"/><path d="M 141.14 203.86 A 15.68 15.68 0 0 1  156.82 219.54000000000002 L 141.14 203.86 A 15.68 15.68 0 0 0 156.82 219.54000000000002" fill="#e6faff"/><rect x="188.1818181818182" y="188.1818181818182" width="31.363636363636363" height="31.363636363636363" fill="#ffffff"/><path d="M 188.18 203.86 A 15.68 15.68 0 0 1  203.86 219.54000000000002 L 188.18 203.86 A 15.68 15.68 0 0 0 203.86 219.54000000000002" fill="#e9fbff"/><path d="M 203.86 219.54000000000002 A 15.68 15.68 0 0 1  219.54000000000002 203.86 L 203.86 219.54000000000002 A 15.68 15.68 0 0 0 219.54000000000002 203.86" fill="#64e9e9"/><path d="M 250.91 219.54000000000002 A 31.36 31.36 0 0 1  282.27 188.18 L 250.91 219.54000000000002 A 31.36 31.36 0 0 0 282.27 188.18" fill="#bff3ff"/><path d="M 282.27 188.18 A 31.36 31.36 0 0 1  313.63 219.54000000000002 L 282.27 188.18 A 31.36 31.36 0 0 0 313.63 219.54000000000002" fill="#93a6f1"/><rect x="345" y="188.1818181818182" width="31.363636363636363" height="31.363636363636363" fill="#ffffff"/><path d="M 345 203.86 A 15.68 15.68 0 0 1  360.68 188.18 L 345 203.86 A 15.68 15.68 0 0 0 360.68 188.18" fill="#73e6ff"/><path d="M 360.68 188.18 A 15.68 15.68 0 0 1  376.36 203.86 L 360.68 188.18 A 15.68 15.68 0 0 0 376.36 203.86" fill="#4adeff"/><path d="M 345 203.86 A 15.68 15.68 0 0 1  360.68 219.54000000000002 L 345 203.86 A 15.68 15.68 0 0 0 360.68 219.54000000000002" fill="#d3f9f9"/><path d="M 360.68 219.54000000000002 A 15.68 15.68 0 0 1  376.36 203.86 L 360.68 219.54000000000002 A 15.68 15.68 0 0 0 376.36 203.86" fill="#e2faff"/><path d="M 407.73 188.18 A 31.36 31.36 0 0 1  439.09000000000003 219.54000000000002 L 407.73 188.18 A 31.36 31.36 0 0 0 439.09000000000003 219.54000000000002" fill="#1f45e2"/><rect x="0" y="219.54545454545453" width="31.363636363636363" height="31.363636363636363" fill="#ffffff"/><rect x="188.1818181818182" y="219.54545454545453" width="31.363636363636363" height="31.363636363636363" fill="#ffffff"/><path d="M 203.86 235.23 A 15.68 15.68 0 0 1  219.54000000000002 250.91 L 203.86 235.23 A 15.68 15.68 0 0 0 219.54000000000002 250.91" fill="#cff6ff"/><path d="M 250.91 219.55 A 31.36 31.36 0 0 1  282.27 250.91000000000003 L 250.91 219.55 A 31.36 31.36 0 0 0 282.27 250.91000000000003" fill="#8ea1f0"/><rect x="282.27272727272725" y="219.54545454545453" width="31.363636363636363" height="31.363636363636363" fill="#ffffff"/><path d="M 282.27 235.23000000000002 A 15.68 15.68 0 0 1  297.95 219.55 L 282.27 235.23000000000002 A 15.68 15.68 0 0 0 297.95 219.55" fill="#91efef"/><path d="M 297.95 250.91 A 15.68 15.68 0 0 1  313.63 235.23 L 297.95 250.91 A 15.68 15.68 0 0 0 313.63 235.23" fill="#3adbff"/><rect x="313.6363636363636" y="219.54545454545453" width="31.363636363636363" height="31.363636363636363" fill="#ffffff"/><path d="M 329.32 235.23000000000002 A 15.68 15.68 0 0 1  345 219.55 L 329.32 235.23000000000002 A 15.68 15.68 0 0 0 345 219.55" fill="#f3fdff"/><path d="M 313.64 250.91 A 15.68 15.68 0 0 1  329.32 235.23 L 313.64 250.91 A 15.68 15.68 0 0 0 329.32 235.23" fill="#d8defa"/><path d="M 407.73 250.91000000000003 A 31.36 31.36 0 0 1  439.09000000000003 219.55 L 407.73 250.91000000000003 A 31.36 31.36 0 0 0 439.09000000000003 219.55" fill="#2549e3"/><rect x="501.8181818181818" y="219.54545454545453" width="31.363636363636363" height="31.363636363636363" fill="#ffffff"/><path d="M 517.5 219.55 A 15.68 15.68 0 0 1  533.18 235.23000000000002 L 517.5 219.55 A 15.68 15.68 0 0 0 533.18 235.23000000000002" fill="#95f0f0"/><path d="M 501.82 235.23 A 15.68 15.68 0 0 1  517.5 250.91 L 501.82 235.23 A 15.68 15.68 0 0 0 517.5 250.91" fill="#c0f4ff"/><path d="M 31.36 250.91 A 31.36 31.36 0 0 1  62.72 282.27 L 31.36 250.91 A 31.36 31.36 0 0 0 62.72 282.27" fill="#758ced"/><rect x="62.72727272727273" y="250.9090909090909" width="31.363636363636363" height="31.363636363636363" fill="#ffffff"/><path d="M 62.73 250.91 A 15.68 15.68 0 0 1  78.41 266.59 L 62.73 250.91 A 15.68 15.68 0 0 0 78.41 266.59" fill="#c9f5ff"/><path d="M 78.41 266.59 A 15.68 15.68 0 0 1  94.09 282.27 L 78.41 266.59 A 15.68 15.68 0 0 0 94.09 282.27" fill="#8febff"/><rect x="219.54545454545453" y="250.9090909090909" width="31.363636363636363" height="31.363636363636363" fill="#ffffff"/><path d="M 219.55 266.59 A 15.68 15.68 0 0 1  235.23000000000002 250.91 L 219.55 266.59 A 15.68 15.68 0 0 0 235.23000000000002 250.91" fill="#86e9ff"/><path d="M 235.23 266.59 A 15.68 15.68 0 0 1  250.91 282.27 L 235.23 266.59 A 15.68 15.68 0 0 0 250.91 282.27" fill="#83e9ff"/><rect x="470.45454545454544" y="250.9090909090909" width="31.363636363636363" height="31.363636363636363" fill="#ffffff"/><path d="M 486.14 266.59 A 15.68 15.68 0 0 1  501.82 250.91 L 486.14 266.59 A 15.68 15.68 0 0 0 501.82 250.91" fill="#e1fbfb"/><path d="M 486.14 266.59 A 15.68 15.68 0 0 1  501.82 282.27 L 486.14 266.59 A 15.68 15.68 0 0 0 501.82 282.27" fill="#45e4e4"/><rect x="533.1818181818181" y="250.9090909090909" width="31.363636363636363" height="31.363636363636363" fill="#ffffff"/><path d="M 548.86 282.27 A 15.68 15.68 0 0 1  564.54 266.59 L 548.86 282.27 A 15.68 15.68 0 0 0 564.54 266.59" fill="#2147e2"/><rect x="31.363636363636363" y="282.27272727272725" width="31.363636363636363" height="31.363636363636363" fill="#ffffff"/><path d="M 31.36 282.27 A 15.68 15.68 0 0 1  47.04 297.95 L 31.36 282.27 A 15.68 15.68 0 0 0 47.04 297.95" fill="#f7fefe"/><path d="M 47.05 297.95 A 15.68 15.68 0 0 1  62.73 282.27 L 47.05 297.95 A 15.68 15.68 0 0 0 62.73 282.27" fill="#30e1e1"/><path d="M 47.05 297.95 A 15.68 15.68 0 0 1  62.73 313.63 L 47.05 297.95 A 15.68 15.68 0 0 0 62.73 313.63" fill="#e0e5fb"/><rect x="188.1818181818182" y="282.27272727272725" width="31.363636363636363" height="31.363636363636363" fill="#ffffff"/><path d="M 203.86 297.95 A 15.68 15.68 0 0 1  219.54000000000002 282.27 L 203.86 297.95 A 15.68 15.68 0 0 0 219.54000000000002 282.27" fill="#7de7ff"/><rect x="219.54545454545453" y="282.27272727272725" width="31.363636363636363" height="31.363636363636363" fill="#ffffff"/><path d="M 235.23 297.95 A 15.68 15.68 0 0 1  250.91 282.27 L 235.23 297.95 A 15.68 15.68 0 0 0 250.91 282.27" fill="#f9fefe"/><path d="M 219.55 313.63 A 15.68 15.68 0 0 1  235.23000000000002 297.95 L 219.55 313.63 A 15.68 15.68 0 0 0 235.23000000000002 297.95" fill="#35daff"/><rect x="313.6363636363636" y="282.27272727272725" width="31.363636363636363" height="31.363636363636363" fill="#ffffff"/><path d="M 329.32 313.63 A 15.68 15.68 0 0 1  345 297.95 L 329.32 313.63 A 15.68 15.68 0 0 0 345 297.95" fill="#aaf3f3"/><path d="M 345 313.63 A 31.36 31.36 0 0 1  376.36 282.27 L 345 313.63 A 31.36 31.36 0 0 0 376.36 282.27" fill="#81eded"/><path d="M 376.36 282.27 A 31.36 31.36 0 0 1  407.72 313.63 L 376.36 282.27 A 31.36 31.36 0 0 0 407.72 313.63" fill="#ffffff"/><rect x="0" y="313.6363636363636" width="31.363636363636363" height="31.363636363636363" fill="#ffffff"/><path d="M 188.18 313.64 A 31.36 31.36 0 0 1  219.54000000000002 345 L 188.18 313.64 A 31.36 31.36 0 0 0 219.54000000000002 345" fill="#c4f7f7"/><rect x="219.54545454545453" y="313.6363636363636" width="31.363636363636363" height="31.363636363636363" fill="#ffffff"/><path d="M 235.23 313.64 A 15.68 15.68 0 0 1  250.91 329.32 L 235.23 313.64 A 15.68 15.68 0 0 0 250.91 329.32" fill="#f6f7fe"/><path d="M 235.23 329.32 A 15.68 15.68 0 0 1  250.91 345 L 235.23 329.32 A 15.68 15.68 0 0 0 250.91 345" fill="#a0eeff"/><path d="M 376.36 313.64 A 31.36 31.36 0 0 1  407.72 345 L 376.36 313.64 A 31.36 31.36 0 0 0 407.72 345" fill="#97f0f0"/><path d="M 407.73 313.64 A 31.36 31.36 0 0 1  439.09000000000003 345 L 407.73 313.64 A 31.36 31.36 0 0 0 439.09000000000003 345" fill="#edf0fd"/><rect x="501.8181818181818" y="313.6363636363636" width="31.363636363636363" height="31.363636363636363" fill="#ffffff"/><path d="M 517.5 329.32 A 15.68 15.68 0 0 1  533.18 345 L 517.5 329.32 A 15.68 15.68 0 0 0 533.18 345" fill="#fbfefe"/></g></svg>